<svg xmlns="http://www.w3.org/2000/svg" width="51" height="51" viewBox="0 0 51 51">
  <g id="Grupo_1108038" data-name="Grupo 1108038" transform="translate(-184.051 -856)">
    <circle id="Elipse_11519" data-name="Elipse 11519" cx="25.5" cy="25.5" r="25.5" transform="translate(184.051 856)" fill="#0c6f64"/>
    <path id="electricidad" d="M25.093,19.016h-2.9l1.07-5.35a.608.608,0,0,0-.6-.727H18.408a.608.608,0,0,0-.592.471l-1.823,7.9a.608.608,0,0,0,.592.744h2.222l-1.588,5.295a.608.608,0,0,0,1.029.587l7.292-7.9a.608.608,0,0,0-.447-1.02Zm-5.954,6.162,1.067-3.557a.608.608,0,0,0-.582-.782H17.349l1.543-6.685h3.029l-1.07,5.35a.608.608,0,0,0,.6.727H23.7Zm19.324-4.947a2.43,2.43,0,0,0-2.009-2.388A16.287,16.287,0,0,0,22.619,4.009a2.424,2.424,0,0,0-4.776,0A16.287,16.287,0,0,0,4.009,17.843a2.424,2.424,0,0,0,0,4.776A16.286,16.286,0,0,0,17.843,36.452a2.424,2.424,0,0,0,4.776,0A16.286,16.286,0,0,0,36.453,22.619,2.43,2.43,0,0,0,38.462,20.231ZM20.231,3.215a1.221,1.221,0,0,1,1.217,1.221.509.509,0,0,0-.007.067,1.212,1.212,0,0,1-2.421,0,.66.66,0,0,0-.005-.072A1.217,1.217,0,0,1,20.231,3.215ZM3.215,20.231a1.221,1.221,0,0,1,1.221-1.217.51.51,0,0,0,.067.007,1.2,1.2,0,0,1,1.131,1.21,1.294,1.294,0,0,1-1.2,1.215v.007s.008,0,0,.006v-.014A1.217,1.217,0,0,1,3.215,20.231ZM20.231,37.247a1.221,1.221,0,0,1-1.217-1.22.581.581,0,0,0,.007-.068,1.212,1.212,0,0,1,2.421,0,.659.659,0,0,0,.005.072A1.217,1.217,0,0,1,20.231,37.247Zm2.3-2c-.021-.062-.051-.12-.077-.18-.018-.042-.033-.085-.053-.125a2.409,2.409,0,0,0-.2-.331c-.006-.008-.01-.017-.016-.025a2.423,2.423,0,0,0-.274-.309c-.031-.03-.066-.056-.1-.085a2.422,2.422,0,0,0-.225-.175c-.043-.029-.086-.054-.131-.081a2.414,2.414,0,0,0-.239-.123c-.048-.021-.095-.042-.144-.06a2.413,2.413,0,0,0-.278-.082c-.045-.011-.088-.024-.134-.033a2.282,2.282,0,0,0-.87,0c-.046.008-.089.022-.134.033a2.413,2.413,0,0,0-.278.082c-.049.018-.1.039-.144.06A2.414,2.414,0,0,0,19,33.94c-.044.026-.088.052-.131.081a2.422,2.422,0,0,0-.225.175c-.033.029-.068.054-.1.085a2.423,2.423,0,0,0-.274.309c-.006.008-.01.017-.016.025a2.409,2.409,0,0,0-.2.331c-.02.041-.035.083-.053.125-.026.06-.056.118-.077.18A15.31,15.31,0,0,1,5.212,22.533c.063-.021.121-.051.181-.077.042-.018.084-.033.124-.053a2.413,2.413,0,0,0,.334-.2l.022-.014a2.425,2.425,0,0,0,.31-.275c.029-.03.054-.064.081-.1a2.42,2.42,0,0,0,.178-.229c.028-.042.053-.084.079-.128a2.42,2.42,0,0,0,.125-.243c.021-.047.041-.093.059-.141a2.411,2.411,0,0,0,.083-.28c.011-.044.024-.087.032-.132a2.281,2.281,0,0,0,0-.871c-.008-.046-.022-.089-.032-.133a2.409,2.409,0,0,0-.082-.278c-.018-.049-.039-.1-.06-.143A2.4,2.4,0,0,0,6.521,19c-.026-.044-.051-.087-.08-.129a2.417,2.417,0,0,0-.177-.227c-.028-.032-.053-.066-.083-.1a2.422,2.422,0,0,0-.309-.275l-.021-.013a2.408,2.408,0,0,0-.335-.2c-.04-.02-.083-.035-.125-.053-.06-.026-.118-.056-.18-.077A15.309,15.309,0,0,1,17.929,5.212c.021.062.051.12.077.18.018.042.033.084.053.125a2.408,2.408,0,0,0,.2.335c0,.007.008.014.013.021a2.422,2.422,0,0,0,.275.309c.031.03.065.055.1.083a2.417,2.417,0,0,0,.227.177c.042.028.085.054.129.08a2.4,2.4,0,0,0,.241.124c.047.021.094.042.143.06a2.409,2.409,0,0,0,.278.082c.045.011.088.024.133.032a2.28,2.28,0,0,0,.87,0c.046-.008.089-.022.133-.032a2.409,2.409,0,0,0,.278-.082c.049-.018.1-.039.143-.06a2.4,2.4,0,0,0,.241-.124c.044-.026.087-.051.129-.08a2.417,2.417,0,0,0,.227-.177c.032-.028.066-.053.1-.083a2.422,2.422,0,0,0,.275-.309c0-.007.008-.014.013-.021a2.408,2.408,0,0,0,.2-.335c.02-.04.035-.083.053-.125.026-.06.056-.118.077-.18A15.309,15.309,0,0,1,35.25,17.929c-.062.021-.12.051-.18.077-.042.018-.084.033-.125.053a2.408,2.408,0,0,0-.335.2l-.021.013a2.422,2.422,0,0,0-.309.275c-.03.031-.055.065-.083.1a2.417,2.417,0,0,0-.177.227c-.028.042-.054.085-.08.129a2.4,2.4,0,0,0-.124.241c-.021.047-.042.094-.06.143a2.41,2.41,0,0,0-.082.278c-.011.045-.024.088-.032.133a2.281,2.281,0,0,0,0,.871c.008.045.022.088.032.132a2.41,2.41,0,0,0,.083.28c.018.048.038.095.059.141a2.42,2.42,0,0,0,.125.243c.025.043.051.086.079.128a2.42,2.42,0,0,0,.178.229c.028.032.052.065.081.1a2.424,2.424,0,0,0,.31.275l.022.014a2.413,2.413,0,0,0,.334.2c.04.02.083.035.124.053.06.026.118.056.181.077A15.31,15.31,0,0,1,22.533,35.25Zm13.5-13.8-.006,0a.637.637,0,0,0-.067-.007,1.212,1.212,0,0,1,0-2.42.66.66,0,0,0,.072-.005,1.215,1.215,0,0,1,0,2.431Z" transform="translate(189.557 861.506)" fill="#fff"/>
  </g>
</svg>
